<?xml version="1.0" encoding="utf-8"?>
<!-- Generator: Adobe Illustrator 21.0.0, SVG Export Plug-In . SVG Version: 6.00 Build 0)  -->
<svg version="1.1" id="Layer_1" xmlns="http://www.w3.org/2000/svg" xmlns:xlink="http://www.w3.org/1999/xlink" x="0px" y="0px"
	 viewBox="0 0 1018.5 125.3" style="enable-background:new 0 0 1018.5 125.3;" xml:space="preserve">
<style type="text/css">
	.st0{fill:#FDFEFD;}
	.st1{fill:#C9C9C9;}
	.st2{fill:#FCFCFC;}
	.st3{fill:#FFFFFD;}
</style>
<path class="st0" d="M511.5,62.6c0,0.2,0,0.5,0,0.7c0,0.9-0.4,1.4-1.3,1.5c-0.9,0.1-2,0.3-2.7-0.5c-0.7-0.9-0.4-2-0.3-3.1
	c0,0,0-0.1,0-0.1c0.3-0.7,1.6-1,2.9-0.8c0.9,0.2,1.3,0.6,1.3,1.5C511.5,62.2,511.5,62.4,511.5,62.6z"/>
<path class="st0" d="M509.2,63.4c-0.3-0.2-1,0.4-1-0.5c0-0.6,0.4-1,1-1c0.6,0,1,0.4,1,1C510.2,63.7,509.6,63.2,509.2,63.4z"/>
<path class="st0" d="M509.2,63.4c-0.3-0.2-0.9,0.3-0.9-0.5c0-0.6,0.4-1,1-1c0.6,0,1,0.3,1,0.9C510.2,63.8,509.5,63.1,509.2,63.4z"/>
<path class="st0" d="M509.2,63.3c-0.2-0.2-0.9,0.4-0.9-0.4c0-0.6,0.4-1,1.1-1c0.6,0,0.9,0.4,0.9,1C510.3,63.3,510.3,63.3,509.2,63.3
	z"/>
<rect class="st1" width="1018.5" height="125.3"/>
<g>
	<path class="st2" d="M588.9,71.7c0,1.2-0.7,2-1.9,2c-1.1,0-2-0.9-2-2.1c0-1.1,1-2,2.1-2C588.2,69.7,588.9,70.5,588.9,71.7z
		 M588.5,71.7c0-0.9-0.6-1.5-1.4-1.5c-0.8,0-1.5,0.6-1.5,1.4c0,0.9,0.6,1.6,1.5,1.6C587.9,73.2,588.5,72.6,588.5,71.7z"/>
	<g>
		<path class="st2" d="M549.3,47.4c0,0.8,0,1.6,0,2.3c0,0.6-0.2,0.9-0.9,0.9c-1.4,0-2.7,0-4.1,0c-0.6,0-0.9-0.2-0.9-0.8
			c0-1.7,0-3.4,0-5c0-0.5,0.2-0.8,0.8-0.8c1.4,0,2.9,0,4.3,0c0.6,0,0.8,0.2,0.8,0.8C549.3,45.6,549.3,46.5,549.3,47.4z"/>
		<path class="st2" d="M519.9,81.7c-2.3-0.1-4.6-0.3-6.8-0.9c-0.6-0.2-0.9-0.4-0.8-1.1c0.2-0.9,0.3-1.8,0.5-2.8
			c0.1-0.7,0.3-0.9,1-0.7c3,0.7,6.1,1,9.2,0.6c0.5-0.1,1-0.1,1.2-0.7c0.3-0.8-0.1-1.3-0.9-1.5c-1.9-0.2-3.7-0.4-5.6-0.6
			c-0.6-0.1-1.1-0.1-1.7-0.2c-1.4-0.3-2.6-0.8-3.1-2.2c-0.5-1.6-0.4-3.2,0.8-4.4c0.6-0.6,0.6-0.9,0-1.4c-0.7-0.6-1.2-1.5-1.4-2.4
			c-0.5-2.2-0.5-4.4,0.1-6.6c0.7-2.8,2.9-4,5.5-4.4c1.9-0.3,3.8-0.1,5.7,0.1c1.8,0.2,3.7,0.1,5.6,0.1c0.9,0,1.4,0.2,1.2,1.2
			c0,0.2,0,0.4,0,0.6c0,1.6,0.3,1.4-1.4,1.9c-0.5,0.1-0.6,0.3-0.4,0.8c0.5,2,0.5,4.1,0.1,6.1c-0.6,2.7-2.6,4-5.1,4.6
			c-1.1,0.2-2.2,0.3-3.2,0.3c-0.2,0-0.4-0.1-0.7,0c-0.6,0.2-1,0.6-1,1.1c0,0.5,0.6,0.5,0.9,0.5c1.6,0.2,3.2,0.4,4.7,0.5
			c4.7,0.3,5.8,2.7,5.2,6.9c-0.3,2.7-2,4-5.3,4.5C522.8,81.6,521.3,81.7,519.9,81.7z M523.4,60c0-0.3,0-0.6,0-0.9
			c0-1.2-0.6-1.8-1.7-2.1c-1.8-0.4-3.4,0.1-3.9,1c0,0.1-0.1,0.1-0.1,0.2c-0.2,1.4-0.6,2.9,0.4,4.1c0.9,1.1,2.3,0.8,3.6,0.6
			c1.2-0.2,1.7-0.8,1.8-2C523.4,60.7,523.4,60.4,523.4,60z"/>
		<path class="st2" d="M439.7,66.3c0.9-2.9,1.8-5.8,2.6-8.7c0.4-1.4,0.9-2.8,1.3-4.3c0.2-0.6,0.4-0.8,1-0.8c1.4,0,2.8,0,4.2,0
			c0.8,0,0.9,0.3,0.7,1c-2.9,9-5.8,17.9-8.7,26.9c-0.2,0.6-0.5,0.9-1.2,0.8c-1.1-0.1-2.3,0-3.5,0c-1.1,0-1.2-0.1-0.8-1.2
			c0.6-2,1.2-4,1.9-6c0.2-0.6,0.2-1-0.6-0.9c-0.5,0.1-0.8-0.2-0.9-0.7c-2-6.3-4-12.5-5.9-18.8c-0.3-1.1-0.2-1.2,0.9-1.2
			c1.2,0,2.4,0.1,3.6,0c0.9-0.1,1.2,0.3,1.4,1.1c1.2,4,2.4,8,3.6,12C439.4,65.8,439.4,66.1,439.7,66.3z"/>
		<path class="st2" d="M492,62.8c0-3.1,0-6.2,0-9.2c0-0.8,0.2-1.1,1-1c0.7,0.1,1.4,0,2.1,0c0.8,0,1.5,0,1.7,1.1
			c0.1,0.6,0.5,0.3,0.8,0.2c1.8-0.8,3.8-1.3,5.7-1.6c3.6-0.5,5.6,1.1,6.1,4.7c0.2,1.8,0.1,3.7,0.1,5.5c0,3.2,0,6.5,0,9.7
			c0,0.9-0.3,1.1-1.1,1.1c-1.2-0.1-2.5-0.1-3.7,0c-0.8,0-1-0.3-1-1c0-4.3,0-8.6,0-13c0-1.2-0.4-1.6-1.6-1.4
			c-1.4,0.2-2.6,0.7-3.9,1.3c-0.5,0.2-0.5,0.6-0.5,1c0,4,0,8,0,12c0,0.9-0.3,1.2-1.2,1.1c-1.2-0.1-2.5,0-3.7,0
			c-0.7,0-0.9-0.2-0.9-0.9C492.1,69.1,492,65.9,492,62.8z"/>
		<path class="st2" d="M578.6,65.2c-1.6,0-3.1,0-4.7,0c-0.7,0-0.8,0.2-0.8,0.9c0,1.8,0.7,2.5,2.5,2.6c2.2,0.1,4.3,0,6.4-0.7
			c0.7-0.2,1.1-0.1,1.2,0.7c0.2,0.9,0.4,1.9,0.6,2.8c0.1,0.5,0,0.8-0.5,1c-3.5,1.2-7.1,1.6-10.7,0.8c-2.8-0.7-4.6-2.5-5-5.4
			c-0.4-3.2-0.5-6.5,0-9.8c0.6-3.6,3.2-5.6,7.2-5.9c1.8-0.1,3.5,0,5.2,0.6c1.9,0.7,3.1,2.1,3.7,3.9c0.8,2.6,0.4,5.2,0.5,7.9
			c0,0.6-0.5,0.6-0.9,0.6C581.7,65.2,580.2,65.2,578.6,65.2z M575.8,60.4c0.7,0,1.4,0,2.1,0c0.5,0,0.6-0.2,0.6-0.7
			c0.1-1.7-0.7-2.6-2.3-2.7c-2-0.1-3.1,0.7-3.3,2.4c-0.1,0.7,0,1.1,0.9,1C574.5,60.3,575.2,60.4,575.8,60.4z"/>
		<path class="st2" d="M488.7,63c0,3.1,0,6.2,0,9.2c0,0.8-0.2,1.1-1,1c-0.7-0.1-1.4,0-2.1,0c-0.8,0-1.5,0-1.7-1.1
			c-0.1-0.6-0.5-0.3-0.8-0.2c-1.6,0.7-3.2,1.2-4.9,1.4c-0.2,0-0.3,0.1-0.5,0.1c-4.1,0.6-6.4-1.2-6.5-5.3c-0.1-4.9,0-9.9-0.1-14.9
			c0-0.6,0.3-0.8,0.9-0.8c1.3,0,2.6,0,3.9,0c0.8,0,1,0.2,1,1c0,4.2,0,8.3,0,12.5c0,0.3,0,0.6,0,0.9c0,0.6,0.4,1,1,1
			c1.7,0,3.2-0.7,4.7-1.4c0.4-0.2,0.2-0.5,0.2-0.8c0-4,0-8.1,0-12.1c0-0.8,0.2-1.1,1-1.1c1.2,0.1,2.4,0.1,3.6,0
			c0.8,0,1.1,0.2,1.1,1.1C488.6,56.7,488.7,59.8,488.7,63z"/>
		<path class="st2" d="M468.6,62.9c0,1.4,0.1,2.8-0.1,4.2c-0.5,3.3-2.3,5.4-5.5,6.2c-2.3,0.6-4.7,0.6-7-0.1
			c-2.8-0.8-4.7-2.6-5.2-5.5c-0.5-3.2-0.5-6.4,0-9.6c0.4-2.8,2.2-4.7,5-5.5c2.5-0.7,5-0.7,7.5,0c3.3,0.9,5.1,3.3,5.4,6.9
			C468.6,60.6,468.6,61.8,468.6,62.9z M462.8,62.9C462.8,62.9,462.7,62.9,462.8,62.9c0-1.1,0-2.2,0-3.4c-0.1-1.2-0.7-1.9-1.9-2.2
			c-0.5-0.1-1.1-0.1-1.7-0.1c-2,0.1-2.8,1-2.8,2.9c0,1.8,0,3.6,0,5.4c0,2,0.9,2.9,2.9,3c0.5,0,1,0,1.5-0.1c1.4-0.2,2-1,2.1-2.3
			C462.8,65,462.8,63.9,462.8,62.9z"/>
		<path class="st2" d="M561.2,65.2c0,2.4,0,4.7,0,7.1c0,0.7-0.2,0.9-0.9,0.9c-1.3,0-2.6,0-3.9,0c-0.7,0-1-0.3-1-1
			c0-4.6,0-9.2,0-13.8c0-0.8-0.1-1.2-1.1-1.1c-2.1,0.1-2.2,0-2.1-2.2c0-0.8-0.3-1.8,0.2-2.4c0.5-0.6,1.5-0.2,2.3-0.2
			c0.5,0,0.7-0.2,0.7-0.7c0-1,0-1.9,0-2.9c0.3-3.1,2.2-5,5.3-5.3c1.8-0.2,3.6,0,5.4,0.4c0.5,0.1,0.7,0.4,0.6,0.9
			c-0.2,1-0.3,2.1-0.4,3.1c-0.1,0.5-0.3,0.8-0.9,0.6c-1-0.2-2-0.3-3-0.2c-0.6,0-1,0.3-1.2,0.9c-0.3,0.9-0.1,1.9-0.1,2.8
			c0,0.4,0.4,0.3,0.6,0.3c1.2,0,2.3,0,3.5,0c0.7,0,1,0.2,0.9,0.9c-0.1,1-0.2,2-0.2,3.1c0,0.6-0.3,0.9-0.9,0.8c-1,0-2,0-3,0
			c-0.7,0-1,0.2-0.9,0.9c0,0,0,0.1,0,0.1C561.2,60.6,561.2,62.9,561.2,65.2z"/>
		<path class="st2" d="M539.3,58.5c0,4.5,0,9,0,13.5c0,0.9-0.3,1.2-1.2,1.2c-1.2-0.1-2.5,0-3.7,0c-0.7,0-0.9-0.2-0.9-0.9
			c0-8.1,0-16.2,0-24.3c0-0.6,0.2-0.9,0.7-1.2c1.3-0.8,2.6-1.7,3.9-2.6c0.3-0.2,0.6-0.6,1-0.4c0.5,0.2,0.3,0.7,0.3,1.1
			c0,2.6,0,5.2,0,7.8C539.3,54.7,539.3,56.6,539.3,58.5z"/>
		<path class="st2" d="M543.5,62.9c0-3.1,0-6.2,0-9.3c0-0.8,0.3-1,1-1c1.3,0,2.6,0,3.9,0c0.6,0,0.9,0.2,0.9,0.9c0,6.3,0,12.6,0,19
			c0,0.7-0.3,0.9-0.9,0.9c-1.3,0-2.7,0-4,0c-0.7,0-0.9-0.2-0.9-0.9C543.5,69.2,543.5,66,543.5,62.9z"/>
		<path class="st2" d="M587.7,72.4c-0.4-0.1-0.8-0.8-1.2,0.1c0-0.7-0.6-1.6,0.3-1.8C588.3,70.5,587.3,71.9,587.7,72.4z"/>
	</g>
</g>
<g>
	<path class="st3" d="M448.4,89.5c0,1.3-1.1,2.4-2.4,2.4c-1.3,0-2.4-1.1-2.4-2.4c0-1.3,1.1-2.4,2.4-2.4
		C447.4,87.1,448.4,88.2,448.4,89.5z M448,89.5c0-1.1-0.9-1.9-1.9-1.9c-1.1,0-1.9,0.9-1.9,1.9c0,1.1,0.9,1.9,1.9,1.9
		C447.1,91.4,448,90.6,448,89.5z M447.2,90.1c-0.2,0.4-0.6,0.6-1.1,0.6c-0.8,0-1.3-0.6-1.3-1.2s0.5-1.2,1.3-1.2
		c0.5,0,0.9,0.2,1.1,0.6l-0.6,0.4c-0.1-0.2-0.3-0.3-0.5-0.3c-0.4,0-0.6,0.2-0.6,0.6c0,0.3,0.2,0.6,0.6,0.6c0.3,0,0.4-0.1,0.5-0.3
		L447.2,90.1z"/>
	<path class="st3" d="M452.6,88.9c0,0.9-1.4,1.5-1.4,1.5h1.3v0.7H450v-0.7c0,0,1.7-0.9,1.7-1.5c0-0.3-0.2-0.4-0.5-0.4
		c-0.3,0-0.4,0.2-0.4,0.5H450c0-0.7,0.5-1.3,1.3-1.3C452.2,87.7,452.6,88.3,452.6,88.9z"/>
	<path class="st3" d="M456.3,89.5c0,1-0.6,1.8-1.6,1.8c-1,0-1.6-0.8-1.6-1.8c0-1,0.6-1.8,1.6-1.8C455.7,87.7,456.3,88.5,456.3,89.5z
		 M455.5,89.5c0-0.7-0.4-1-0.8-1c-0.4,0-0.8,0.3-0.8,1c0,0.7,0.4,1,0.8,1C455,90.5,455.5,90.1,455.5,89.5z"/>
	<path class="st3" d="M459.9,89.5c0,1-0.6,1.8-1.6,1.8c-1,0-1.6-0.8-1.6-1.8c0-1,0.6-1.8,1.6-1.8C459.3,87.7,459.9,88.5,459.9,89.5z
		 M459.1,89.5c0-0.7-0.4-1-0.8-1c-0.4,0-0.8,0.3-0.8,1c0,0.7,0.4,1,0.8,1C458.7,90.5,459.1,90.1,459.1,89.5z"/>
	<path class="st3" d="M462.8,89.8h0.6v0.8h-0.6v0.6h-0.8v-0.6h-1.4l-0.3-0.8l1.7-2h0.8V89.8z M461.1,89.8h0.9v-1L461.1,89.8z"/>
	<path class="st3" d="M465.6,89.8h-1.8v-0.8h1.8V89.8z"/>
	<path class="st3" d="M468.7,88.9c0,0.9-1.4,1.5-1.4,1.5h1.3v0.7h-2.5v-0.7c0,0,1.7-0.9,1.7-1.5c0-0.3-0.2-0.4-0.5-0.4
		c-0.3,0-0.4,0.2-0.4,0.5h-0.8c0-0.7,0.5-1.3,1.3-1.3C468.3,87.7,468.7,88.3,468.7,88.9z"/>
	<path class="st3" d="M472.4,89.5c0,1-0.6,1.8-1.6,1.8c-1,0-1.6-0.8-1.6-1.8c0-1,0.6-1.8,1.6-1.8C471.8,87.7,472.4,88.5,472.4,89.5z
		 M471.6,89.5c0-0.7-0.4-1-0.8-1s-0.8,0.3-0.8,1c0,0.7,0.4,1,0.8,1S471.6,90.1,471.6,89.5z"/>
	<path class="st3" d="M474.4,91.2h-0.8v-2.3c-0.2,0.2-0.7,0.4-0.7,0.4l-0.2-0.8c0.2-0.1,0.7-0.3,0.9-0.7h0.8V91.2z"/>
	<path class="st3" d="M477.6,88.1l-0.4,0.6c-0.1,0-0.4-0.3-0.7-0.3c-0.5,0-0.7,0.4-0.8,0.7c0.1-0.1,0.3-0.3,0.8-0.3
		c0.5,0,1.2,0.4,1.2,1.2c0,0.8-0.6,1.2-1.3,1.2c-0.8,0-1.4-0.6-1.4-1.7c0-0.9,0.4-1.9,1.5-1.9C477,87.7,477.4,88,477.6,88.1z
		 M475.8,90c0,0.3,0.2,0.5,0.5,0.5c0.3,0,0.5-0.2,0.5-0.5s-0.2-0.5-0.5-0.5S475.8,89.7,475.8,90z"/>
	<path class="st3" d="M481.5,89.9v1.3h-0.8v-1.3l-1.5-2.1h0.9l0.9,1.4l0.9-1.4h1L481.5,89.9z"/>
	<path class="st3" d="M486.2,89.5c0,1-0.8,1.8-1.8,1.8c-1,0-1.8-0.8-1.8-1.8c0-1,0.8-1.8,1.8-1.8C485.4,87.7,486.2,88.5,486.2,89.5z
		 M483.4,89.5c0,0.6,0.5,1,1,1c0.5,0,1-0.4,1-1c0-0.6-0.5-1-1-1C483.9,88.5,483.4,88.9,483.4,89.5z"/>
	<path class="st3" d="M489.8,89.4c0,1.1-0.7,1.8-1.7,1.8c-1,0-1.6-0.7-1.6-1.8v-1.7h0.8v1.7c0,0.7,0.3,1,0.8,1c0.5,0,0.8-0.4,0.8-1
		v-1.7h0.8V89.4z"/>
	<path class="st3" d="M493.7,91.2h-0.8l-1.7-2.1v2.1h-0.8v-3.4h0.8l1.7,2.1v-2.1h0.8V91.2z"/>
	<path class="st3" d="M497.7,88.5l-0.7,0.4c-0.2-0.2-0.4-0.3-0.8-0.3c-0.6,0-1,0.4-1,1c0,0.5,0.4,1,1,1c0.4,0,0.7-0.1,0.8-0.3v-0.3
		h-1v-0.6h1.8v1.3c0,0-0.6,0.8-1.6,0.8c-1.1,0-1.9-0.8-1.9-1.8c0-0.9,0.8-1.8,1.8-1.8C496.8,87.7,497.3,88,497.7,88.5z"/>
	<path class="st3" d="M500.3,90.4h1.8v0.8h-2.6v-3.4h0.8V90.4z"/>
	<path class="st3" d="M503.5,91.2h-0.8v-3.4h0.8V91.2z"/>
	<path class="st3" d="M506.9,88.5h-1.8v0.8h1.5v0.8h-1.5v1.1h-0.8v-3.4h2.6V88.5z"/>
	<path class="st3" d="M510.1,87.8v0.8h-1.8v0.6h1.5v0.7h-1.5v0.6h1.8v0.8h-2.6v-3.4H510.1z"/>
	<path class="st3" d="M511.6,90.8c0,0.3-0.2,0.5-0.5,0.5c-0.3,0-0.5-0.2-0.5-0.5c0-0.3,0.2-0.5,0.5-0.5
		C511.4,90.3,511.6,90.5,511.6,90.8z"/>
	<path class="st3" d="M515.9,90.6h-1.6l-0.2,0.5h-0.9l1.5-3.4h0.9l1.5,3.4h-0.9L515.9,90.6z M515.6,90l-0.5-1.3l-0.5,1.3H515.6z"/>
	<path class="st3" d="M518.3,90.4h1.8v0.8h-2.6v-3.4h0.8V90.4z"/>
	<path class="st3" d="M521.5,90.4h1.8v0.8h-2.6v-3.4h0.8V90.4z"/>
	<path class="st3" d="M527.9,89c0,0.5-0.2,0.9-0.6,1.1l0.7,1h-1l-0.5-0.8h-0.6v0.8h-0.8v-3.4h1.6C527.4,87.8,527.9,88.3,527.9,89z
		 M525.9,88.5v1h0.7c0.3,0,0.5-0.2,0.5-0.5c0-0.3-0.2-0.5-0.5-0.5H525.9z"/>
	<path class="st3" d="M529.4,91.2h-0.8v-3.4h0.8V91.2z"/>
	<path class="st3" d="M533.4,88.5l-0.7,0.4c-0.2-0.2-0.4-0.3-0.8-0.3c-0.6,0-1,0.4-1,1c0,0.5,0.4,1,1,1c0.4,0,0.7-0.1,0.8-0.3v-0.3
		h-1v-0.6h1.8v1.3c0,0-0.6,0.8-1.6,0.8c-1.1,0-1.9-0.8-1.9-1.8c0-0.9,0.8-1.8,1.8-1.8C532.5,87.7,533.1,88,533.4,88.5z"/>
	<path class="st3" d="M537.2,91.2h-0.8v-1.3h-1.5v1.3h-0.8v-3.4h0.8v1.3h1.5v-1.3h0.8V91.2z"/>
	<path class="st3" d="M541,88.5h-1.2v2.6H539v-2.6h-1.2v-0.8h3.2V88.5z"/>
	<path class="st3" d="M544.1,88.8h-0.8c0-0.2-0.2-0.4-0.6-0.4c-0.2,0-0.5,0.1-0.5,0.3c0,0.2,0.2,0.2,0.7,0.4
		c0.5,0.1,1.3,0.3,1.3,1.1c0,0.7-0.6,1.1-1.4,1.1c-1.1,0-1.5-0.7-1.5-1.3h0.8c0,0,0.1,0.5,0.7,0.5c0.4,0,0.5-0.2,0.5-0.3
		c0-0.2-0.3-0.3-0.6-0.4c-0.5-0.1-1.4-0.3-1.4-1.1c0-0.6,0.6-1.1,1.4-1.1C543.6,87.7,544.1,88.3,544.1,88.8z"/>
	<path class="st3" d="M548.8,89c0,0.5-0.2,0.9-0.6,1.1l0.7,1h-1l-0.5-0.8h-0.6v0.8H546v-3.4h1.6C548.3,87.8,548.8,88.3,548.8,89z
		 M546.8,88.5v1h0.7c0.3,0,0.5-0.2,0.5-0.5c0-0.3-0.2-0.5-0.5-0.5H546.8z"/>
	<path class="st3" d="M552.1,87.8v0.8h-1.8v0.6h1.5v0.7h-1.5v0.6h1.8v0.8h-2.6v-3.4H552.1z"/>
	<path class="st3" d="M555.4,88.8h-0.8c0-0.2-0.2-0.4-0.6-0.4c-0.2,0-0.5,0.1-0.5,0.3c0,0.2,0.2,0.2,0.7,0.4
		c0.5,0.1,1.3,0.3,1.3,1.1c0,0.7-0.6,1.1-1.4,1.1c-1.1,0-1.5-0.7-1.5-1.3h0.8c0,0,0.1,0.5,0.7,0.5c0.4,0,0.5-0.2,0.5-0.3
		c0-0.2-0.3-0.3-0.6-0.4c-0.5-0.1-1.4-0.3-1.4-1.1c0-0.6,0.6-1.1,1.4-1.1C554.9,87.7,555.4,88.3,555.4,88.8z"/>
	<path class="st3" d="M558.7,87.8v0.8h-1.8v0.6h1.5v0.7h-1.5v0.6h1.8v0.8h-2.6v-3.4H558.7z"/>
	<path class="st3" d="M562.2,89c0,0.5-0.2,0.9-0.6,1.1l0.7,1h-1l-0.5-0.8h-0.6v0.8h-0.8v-3.4h1.6C561.7,87.8,562.2,88.3,562.2,89z
		 M560.2,88.5v1h0.7c0.3,0,0.5-0.2,0.5-0.5c0-0.3-0.2-0.5-0.5-0.5H560.2z"/>
	<path class="st3" d="M565.1,91.2h-0.9l-1.5-3.4h0.9l1.1,2.4l1.1-2.4h0.9L565.1,91.2z"/>
	<path class="st3" d="M569.7,87.8v0.8H568v0.6h1.5v0.7H568v0.6h1.8v0.8h-2.6v-3.4H569.7z"/>
	<path class="st3" d="M573.7,89.5c0,1-0.7,1.7-1.8,1.7h-1.5v-3.4l1.5,0C573,87.8,573.7,88.5,573.7,89.5z M571.2,90.4h0.7
		c0.6,0,1-0.4,1-0.9c0-0.6-0.4-0.9-1-0.9h-0.7V90.4z"/>
	<path class="st3" d="M574.9,90.8c0,0.3-0.2,0.5-0.5,0.5c-0.3,0-0.5-0.2-0.5-0.5c0-0.3,0.2-0.5,0.5-0.5
		C574.6,90.3,574.9,90.5,574.9,90.8z"/>
</g>
</svg>
