<?xml version="1.0" encoding="utf-8"?>
<!-- Generator: Adobe Illustrator 21.0.0, SVG Export Plug-In . SVG Version: 6.00 Build 0)  -->
<svg version="1.1" id="Layer_1" xmlns="http://www.w3.org/2000/svg" xmlns:xlink="http://www.w3.org/1999/xlink" x="0px" y="0px"
	 viewBox="0 0 1081.9 176.3" style="enable-background:new 0 0 1081.9 176.3;" xml:space="preserve">
<style type="text/css">
	.st0{fill:#FFFFFF;}
	.st1{fill:none;stroke:#054261;stroke-width:2;stroke-miterlimit:10;}
	.st2{fill:none;stroke:#C1D62F;stroke-width:2;stroke-miterlimit:10;}
	.st3{fill:#C1D62F;}
	.st4{fill:#054261;}
	.st5{fill:#FDFEFD;}
</style>
<rect class="st0" width="1061.3" height="96.7"/>
<rect x="20.6" y="79.7" class="st0" width="1061.3" height="96.7"/>
<line class="st1" x1="461.6" y1="110.8" x2="36.3" y2="110.8"/>
<line class="st2" x1="1033.5" y1="113.5" x2="610.2" y2="113.5"/>
<g>
	<path class="st3" d="M614.7,104.8v3.9h-2.5v-3.9l-4.3-6.3h2.8l2.8,4.2l2.7-4.2h2.9L614.7,104.8z"/>
	<path class="st3" d="M628.8,103.5c0,2.9-2.4,5.3-5.3,5.3c-2.9,0-5.3-2.4-5.3-5.3c0-2.9,2.3-5.3,5.3-5.3
		C626.4,98.2,628.8,100.6,628.8,103.5z M620.5,103.5c0,1.7,1.4,3,3,3c1.6,0,3-1.3,3-3c0-1.6-1.3-3-3-3
		C621.9,100.5,620.5,101.9,620.5,103.5z"/>
	<path class="st3" d="M639.8,103.4c0,3.4-2.1,5.4-5,5.4c-2.9,0-4.9-2-4.9-5.4v-5h2.5v5c0,2,0.8,3.1,2.4,3.1c1.5,0,2.5-1.2,2.5-3.1
		v-5h2.5V103.4z"/>
	<path class="st3" d="M661.3,98.4l-3.8,10.2H655l-2.1-6.6l-2.4,6.6h-2.5l-3.4-10.2h2.6l2.1,6.6l2.3-6.6h2.7l2.1,6.6l2.4-6.6H661.3z"
		/>
	<path class="st3" d="M670.9,98.4v2.3h-5.4v1.8h4.5v2.1h-4.5v1.8h5.4v2.3H663V98.4H670.9z"/>
	<path class="st3" d="M681.4,102.2c0,1.5-0.7,2.7-1.8,3.3l2.1,3.1h-3.1l-1.5-2.5h-1.8v2.5h-2.5V98.4h4.9
		C679.9,98.4,681.4,100,681.4,102.2z M675.3,100.7v3.1h2.1c0.8,0,1.5-0.7,1.5-1.6c0-0.8-0.7-1.5-1.5-1.5H675.3z"/>
	<path class="st3" d="M691.3,98.4v2.3h-5.4v1.8h4.5v2.1h-4.5v1.8h5.4v2.3h-7.8V98.4H691.3z"/>
	<path class="st3" d="M709.4,108.6h-2.5v-5.2l-2.4,5.2h-2.7l-2.4-5.2v5.2h-2.5V98.4h2.7l3.6,7.5l3.5-7.5h2.7V108.6z"/>
	<path class="st3" d="M719.3,107h-4.9l-0.7,1.6h-2.6l4.4-10.2h2.7l4.4,10.2h-2.6L719.3,107z M718.4,105l-1.6-3.8l-1.6,3.8H718.4z"/>
	<path class="st3" d="M734.1,103.5c0,3-2.2,5.1-5.4,5.1h-4.5V98.4l4.5,0C732.1,98.4,734.1,100.6,734.1,103.5z M726.7,106.3h2.1
		c1.7,0,2.9-1.1,2.9-2.8c0-1.8-1.2-2.8-2.9-2.8h-2.1V106.3z"/>
	<path class="st3" d="M743.6,98.4v2.3h-5.4v1.8h4.5v2.1h-4.5v1.8h5.4v2.3h-7.8V98.4H743.6z"/>
	<path class="st3" d="M757,100.7h-5.4v2.3h4.5v2.3h-4.5v3.3h-2.5V98.4h7.8V100.7z"/>
	<path class="st3" d="M768.8,103.5c0,2.9-2.4,5.3-5.3,5.3c-2.9,0-5.3-2.4-5.3-5.3c0-2.9,2.3-5.3,5.3-5.3
		C766.4,98.2,768.8,100.6,768.8,103.5z M760.5,103.5c0,1.7,1.3,3,3,3c1.6,0,3-1.3,3-3c0-1.6-1.3-3-3-3
		C761.9,100.5,760.5,101.9,760.5,103.5z"/>
	<path class="st3" d="M779,102.2c0,1.5-0.7,2.7-1.8,3.3l2.1,3.1h-3.1l-1.5-2.5h-1.8v2.5h-2.5V98.4h4.9C777.4,98.4,779,100,779,102.2
		z M772.9,100.7v3.1h2.1c0.8,0,1.5-0.7,1.5-1.6c0-0.8-0.7-1.5-1.5-1.5H772.9z"/>
	<path class="st3" d="M793.7,100.7h-3.6v7.9h-2.5v-7.9H784v-2.3h9.7V100.7z"/>
	<path class="st3" d="M804.8,108.6h-2.5v-4h-4.5v4h-2.5V98.4h2.5v4h4.5v-4h2.5V108.6z"/>
	<path class="st3" d="M809.5,108.6h-2.5V98.4h2.5V108.6z"/>
	<path class="st3" d="M819.7,101.6h-2.4c0-0.5-0.6-1.2-1.6-1.2c-0.7,0-1.6,0.3-1.6,0.9c0,0.5,0.7,0.7,2.1,1.1c1.6,0.4,3.9,1,3.9,3.2
		c0,1.9-1.7,3.2-4.1,3.2c-3.2,0-4.5-2.2-4.5-3.8h2.4c0,0,0.2,1.6,2.2,1.6c1.1,0,1.5-0.5,1.5-0.9c0-0.6-0.9-0.9-1.8-1.1
		c-1.5-0.4-4.2-0.9-4.2-3.2c0-1.9,1.8-3.2,4.2-3.2C818.3,98.2,819.7,100,819.7,101.6z"/>
	<path class="st3" d="M824.2,107.3c0,0.8-0.7,1.4-1.5,1.4c-0.8,0-1.4-0.7-1.4-1.4c0-0.8,0.7-1.5,1.4-1.5
		C823.5,105.8,824.2,106.5,824.2,107.3z"/>
</g>
<g>
	<path class="st4" d="M269.7,100.4h-2.4c0-0.5-0.6-1.2-1.6-1.2c-0.7,0-1.6,0.3-1.6,0.9c0,0.5,0.7,0.7,2.1,1.1c1.6,0.4,3.9,1,3.9,3.2
		c0,2-1.7,3.2-4.1,3.2c-3.2,0-4.5-2.2-4.5-3.8h2.4c0,0,0.2,1.6,2.2,1.6c1.1,0,1.5-0.5,1.5-0.9c0-0.6-0.9-0.9-1.8-1.1
		c-1.5-0.4-4.2-0.9-4.2-3.2c0-1.9,1.8-3.2,4.2-3.2C268.3,97,269.7,98.8,269.7,100.4z"/>
	<path class="st4" d="M281.6,102.2c0,2.9-2.4,5.3-5.3,5.3c-2.9,0-5.3-2.4-5.3-5.3c0-2.9,2.3-5.3,5.3-5.3
		C279.3,97,281.6,99.3,281.6,102.2z M273.3,102.2c0,1.7,1.3,3,3,3c1.6,0,3-1.3,3-3c0-1.7-1.3-3-3-3
		C274.7,99.3,273.3,100.6,273.3,102.2z"/>
	<path class="st4" d="M292.6,102.1c0,3.4-2.1,5.4-5,5.4c-2.9,0-4.9-2-4.9-5.4v-5h2.5v5c0,2,0.8,3.1,2.4,3.1c1.5,0,2.5-1.2,2.5-3.1
		v-5h2.5V102.1z"/>
	<path class="st4" d="M303.5,99.4h-3.6v7.9h-2.5v-7.9h-3.6v-2.3h9.7V99.4z"/>
	<path class="st4" d="M314.6,107.3h-2.5v-4h-4.5v4h-2.5V97.1h2.5v4h4.5v-4h2.5V107.3z"/>
	<path class="st4" d="M321.9,103.4h-5.5v-2.3h5.5V103.4z"/>
	<path class="st4" d="M331.6,97.1v2.3h-5.4v1.8h4.5v2.1h-4.5v1.8h5.4v2.3h-7.8V97.1H331.6z"/>
	<path class="st4" d="M341.2,105.8h-4.9l-0.7,1.6H333l4.4-10.2h2.7l4.4,10.2h-2.6L341.2,105.8z M340.4,103.7l-1.6-3.8l-1.6,3.8
		H340.4z"/>
	<path class="st4" d="M353,100.4h-2.4c0-0.5-0.6-1.2-1.6-1.2c-0.7,0-1.6,0.3-1.6,0.9c0,0.5,0.7,0.7,2.1,1.1c1.6,0.4,3.9,1,3.9,3.2
		c0,2-1.7,3.2-4.1,3.2c-3.2,0-4.5-2.2-4.5-3.8h2.4c0,0,0.2,1.6,2.2,1.6c1.1,0,1.5-0.5,1.5-0.9c0-0.6-0.9-0.9-1.8-1.1
		c-1.5-0.4-4.2-0.9-4.2-3.2c0-1.9,1.8-3.2,4.2-3.2C351.6,97,353,98.8,353,100.4z"/>
	<path class="st4" d="M363.7,99.4h-3.6v7.9h-2.5v-7.9H354v-2.3h9.7V99.4z"/>
	<path class="st4" d="M378.8,104.9c-0.9,1.5-2.6,2.7-4.8,2.7c-3.2,0-5.5-2.3-5.5-5.4c0-2.8,2.3-5.2,5.5-5.2c2.2,0,3.9,1,4.8,2.5
		l-2.1,1.2c-0.5-0.9-1.4-1.5-2.7-1.5c-1.8,0-3,1.3-3,3c0,1.6,1.2,3,3,3c1.3,0,2.2-0.6,2.7-1.5L378.8,104.9z"/>
	<path class="st4" d="M382.9,107.3h-2.5V97.1h2.5V107.3z"/>
	<path class="st4" d="M395.1,107.3h-2.5l-5.2-6.2v6.2H385V97.1h2.5l5.2,6.2v-6.2h2.5V107.3z"/>
	<path class="st4" d="M407.1,104.9c-0.9,1.5-2.6,2.7-4.8,2.7c-3.2,0-5.5-2.3-5.5-5.4c0-2.8,2.3-5.2,5.5-5.2c2.2,0,3.9,1,4.8,2.5
		l-2.1,1.2c-0.5-0.9-1.4-1.5-2.7-1.5c-1.8,0-3,1.3-3,3c0,1.6,1.2,3,3,3c1.3,0,2.2-0.6,2.7-1.5L407.1,104.9z"/>
	<path class="st4" d="M411.2,107.3h-2.5V97.1h2.5V107.3z"/>
	<path class="st4" d="M423.4,107.3h-2.5l-5.2-6.2v6.2h-2.5V97.1h2.5l5.2,6.2v-6.2h2.5V107.3z"/>
	<path class="st4" d="M435.5,107.3H433l-5.2-6.2v6.2h-2.5V97.1h2.5l5.2,6.2v-6.2h2.5V107.3z"/>
	<path class="st4" d="M445.3,105.8h-4.9l-0.7,1.6h-2.6l4.4-10.2h2.7l4.4,10.2h-2.6L445.3,105.8z M444.4,103.7l-1.6-3.8l-1.6,3.8
		H444.4z"/>
	<path class="st4" d="M457.4,99.4h-3.6v7.9h-2.5v-7.9h-3.6v-2.3h9.7V99.4z"/>
	<path class="st4" d="M461.5,107.3h-2.5V97.1h2.5V107.3z"/>
</g>
<g>
	<path class="st3" d="M530.7,91.9c0,5.2,0,10.3,0,15.5c0,1-0.3,1.3-1.3,1.3c-3.5,0-7,0-10.5,0c-1.1,0-1.3-0.2-1.3-1.4
		c0-8.3,0-16.5,0-24.8c0-0.5-0.2-0.9-0.5-1.3c-4.1-4.1-8.2-8.2-12.4-12.3c-0.5-0.5-0.7-1-0.7-1.7c0-2.6,0-5.2,0-7.8
		c0-1.1,0.1-1.2,1.3-1.2c2.4,0,4.9,0,7.3,0c0.5,0,0.8,0.1,1.1,0.5c5.5,5.5,11,11,16.5,16.5c0.4,0.4,0.5,0.8,0.5,1.3
		C530.6,81.5,530.7,86.7,530.7,91.9z"/>
	<path class="st3" d="M535.7,91.8c0-5.1,0-10.2,0-15.4c0-0.6,0.2-1.1,0.6-1.5c3.6-3.5,7.1-7.1,10.6-10.6c0.2-0.2,0.4-0.4,0.6-0.5
		c0.6-0.4,1.2-0.1,1.3,0.5c0,0.2,0,0.5,0,0.8c0,9.8,0,19.7,0,29.5c0,0.7,0.2,0.8,0.9,0.8c3,0,6.1,0,9.1,0c0.6,0,1.1,0.2,1.5,0.6
		c1.7,1.7,3.4,3.4,5.1,5.1c0.7,0.7,0.7,1,0,1.7c-1.7,1.8-3.5,3.5-5.2,5.2c-0.3,0.3-0.7,0.5-1.1,0.5c-7.4,0-14.9,0-22.3,0
		c-0.9,0-1.1-0.2-1.1-1.2C535.7,102.2,535.7,97,535.7,91.8z"/>
	<path class="st5" d="M547.4,128.3c0,0.2,0,0.5,0,0.7c0,0.9-0.4,1.4-1.3,1.5c-0.9,0.1-2,0.3-2.7-0.5c-0.7-0.9-0.4-2-0.3-3.1
		c0,0,0-0.1,0-0.1c0.3-0.7,1.6-1,2.9-0.8c0.9,0.2,1.3,0.6,1.3,1.5C547.4,127.9,547.4,128.1,547.4,128.3z"/>
	<path class="st5" d="M549.8,157.1c-0.3-0.2-1,0.4-1-0.5c0-0.6,0.4-1,1-1c0.6,0,1,0.4,1,1C550.8,157.4,550.2,156.9,549.8,157.1z"/>
	<path class="st5" d="M520.4,157.1c-0.3-0.2-0.9,0.3-0.9-0.5c0-0.6,0.4-1,1-1c0.6,0,1,0.3,1,0.9
		C521.5,157.5,520.8,156.8,520.4,157.1z"/>
	<path class="st5" d="M510.8,157.1c-0.2-0.2-0.9,0.4-0.9-0.4c0-0.6,0.4-1,1.1-1c0.6,0,0.9,0.4,0.9,1
		C511.9,157.1,511.9,157.1,510.8,157.1z"/>
	<g>
		<path class="st3" d="M565.8,114.4c0,0.6,0,1.2,0,1.7c0,0.5-0.1,0.7-0.6,0.7c-1,0-2,0-3.1,0c-0.4,0-0.7-0.1-0.6-0.6
			c0-1.3,0-2.5,0-3.8c0-0.4,0.1-0.6,0.6-0.6c1.1,0,2.1,0,3.2,0c0.4,0,0.6,0.2,0.6,0.6C565.8,113.1,565.8,113.8,565.8,114.4z"/>
		<path class="st5" d="M585.7,124.2c-0.5,0-0.9,0-1.4,0c-0.6,0.1-0.7-0.2-0.6-0.7c0.1-1.2,1-1.9,2.4-1.8c1.2,0.1,1.7,0.7,1.7,2
			c0,0.4-0.1,0.5-0.5,0.5C586.7,124.2,586.2,124.2,585.7,124.2z"/>
		<g>
			<path class="st4" d="M543.8,140.1c-1.7-0.1-3.4-0.2-5.1-0.7c-0.5-0.1-0.7-0.3-0.6-0.8c0.1-0.7,0.3-1.4,0.3-2.1
				c0.1-0.5,0.2-0.7,0.8-0.5c2.3,0.5,4.5,0.7,6.9,0.4c0.4,0,0.8-0.1,0.9-0.5c0.2-0.6,0-1-0.7-1.1c-1.4-0.2-2.8-0.3-4.2-0.5
				c-0.4,0-0.8-0.1-1.2-0.2c-1-0.2-2-0.6-2.3-1.7c-0.4-1.2-0.3-2.4,0.6-3.3c0.4-0.4,0.5-0.7,0-1.1c-0.5-0.5-0.9-1.1-1-1.8
				c-0.4-1.6-0.4-3.3,0-4.9c0.6-2.1,2.1-3,4.1-3.3c1.4-0.2,2.8-0.1,4.2,0.1c1.4,0.2,2.8,0.1,4.2,0.1c0.7,0,1,0.2,0.9,0.9
				c0,0.1,0,0.3,0,0.4c0,1.2,0.2,1.1-1,1.4c-0.4,0.1-0.4,0.2-0.3,0.6c0.4,1.5,0.4,3.1,0.1,4.6c-0.5,2-1.9,3-3.8,3.4
				c-0.8,0.2-1.6,0.2-2.4,0.2c-0.2,0-0.3,0-0.5,0c-0.4,0.1-0.7,0.4-0.7,0.8c0,0.4,0.4,0.3,0.7,0.4c1.2,0.1,2.4,0.3,3.5,0.4
				c3.5,0.2,4.3,2,3.9,5.2c-0.2,2-1.5,3-3.9,3.3C546,140.1,544.9,140.1,543.8,140.1z M546.5,123.9c0-0.2,0-0.5,0-0.7
				c0-0.9-0.4-1.4-1.3-1.5c-1.4-0.3-2.6,0-2.9,0.8c0,0,0,0.1,0,0.1c-0.1,1.1-0.5,2.2,0.3,3.1c0.7,0.8,1.7,0.6,2.7,0.5
				c0.9-0.1,1.3-0.6,1.3-1.5C546.5,124.4,546.5,124.2,546.5,123.9z"/>
			<path class="st4" d="M483.9,128.6c0.7-2.2,1.3-4.4,2-6.5c0.3-1.1,0.7-2.1,1-3.2c0.1-0.4,0.3-0.6,0.8-0.6c1,0,2.1,0,3.1,0
				c0.6,0,0.7,0.2,0.5,0.7c-2.2,6.7-4.3,13.4-6.5,20.1c-0.2,0.5-0.4,0.7-0.9,0.6c-0.9,0-1.7,0-2.6,0c-0.8,0-0.9-0.1-0.6-0.9
				c0.5-1.5,0.9-3,1.4-4.5c0.1-0.4,0.2-0.7-0.4-0.6c-0.4,0.1-0.6-0.2-0.7-0.5c-1.5-4.7-3-9.4-4.4-14c-0.3-0.8-0.2-0.9,0.7-0.9
				c0.9,0,1.8,0,2.7,0c0.7,0,0.9,0.2,1.1,0.8c0.9,3,1.8,6,2.7,9C483.6,128.2,483.6,128.4,483.9,128.6z"/>
			<path class="st4" d="M523,126c0-2.3,0-4.6,0-6.9c0-0.6,0.2-0.8,0.8-0.8c0.5,0,1.1,0,1.6,0c0.6,0,1.2,0,1.3,0.8
				c0,0.4,0.4,0.2,0.6,0.1c1.4-0.6,2.8-1,4.3-1.2c2.7-0.4,4.2,0.8,4.6,3.5c0.2,1.4,0.1,2.7,0.1,4.1c0,2.4,0,4.8,0,7.3
				c0,0.7-0.2,0.9-0.8,0.8c-0.9,0-1.9,0-2.8,0c-0.6,0-0.8-0.2-0.8-0.8c0-3.2,0-6.5,0-9.7c0-0.9-0.3-1.2-1.2-1.1
				c-1,0.1-2,0.5-2.9,0.9c-0.4,0.2-0.3,0.4-0.3,0.7c0,3,0,6,0,9c0,0.7-0.2,0.9-0.9,0.9c-0.9,0-1.9,0-2.8,0c-0.5,0-0.7-0.2-0.7-0.7
				C523,130.7,523,128.3,523,126z"/>
			<path class="st3" d="M587.8,127.8c-1.2,0-2.3,0-3.5,0c-0.5,0-0.6,0.2-0.6,0.6c0,1.3,0.5,1.9,1.8,1.9c1.6,0.1,3.2,0,4.8-0.5
				c0.5-0.2,0.8-0.1,0.9,0.5c0.1,0.7,0.3,1.4,0.4,2.1c0.1,0.3,0,0.6-0.4,0.7c-2.6,0.9-5.3,1.2-8,0.6c-2.1-0.5-3.5-1.9-3.7-4
				c-0.3-2.4-0.4-4.9,0-7.3c0.4-2.7,2.4-4.2,5.4-4.4c1.3-0.1,2.6,0,3.9,0.5c1.4,0.5,2.3,1.5,2.7,3c0.6,1.9,0.3,3.9,0.4,5.9
				c0,0.4-0.3,0.4-0.7,0.4C590.1,127.8,588.9,127.8,587.8,127.8z M585.7,124.2c0.5,0,1.1,0,1.6,0c0.4,0,0.5-0.1,0.5-0.5
				c0-1.3-0.5-1.9-1.7-2c-1.5-0.1-2.3,0.5-2.4,1.8c0,0.5,0,0.8,0.6,0.7C584.7,124.1,585.2,124.2,585.7,124.2z"/>
			<path class="st4" d="M520.5,126.1c0,2.3,0,4.6,0,6.9c0,0.6-0.2,0.8-0.8,0.8c-0.5,0-1.1,0-1.6,0c-0.6,0-1.2,0-1.3-0.8
				c-0.1-0.4-0.4-0.2-0.6-0.1c-1.2,0.5-2.4,0.9-3.7,1.1c-0.1,0-0.2,0-0.3,0.1c-3.1,0.4-4.8-0.9-4.8-4c-0.1-3.7,0-7.4,0-11.1
				c0-0.5,0.2-0.6,0.7-0.6c1,0,2,0,2.9,0c0.6,0,0.8,0.2,0.8,0.8c0,3.1,0,6.2,0,9.4c0,0.2,0,0.5,0,0.7c0,0.5,0.3,0.7,0.8,0.7
				c1.3,0,2.4-0.5,3.5-1c0.3-0.1,0.2-0.4,0.2-0.6c0-3,0-6.1,0-9.1c0-0.6,0.1-0.8,0.8-0.8c0.9,0,1.8,0,2.7,0c0.6,0,0.9,0.2,0.8,0.8
				C520.5,121.5,520.5,123.8,520.5,126.1z"/>
			<path class="st4" d="M505.5,126c0,1,0.1,2.1-0.1,3.1c-0.3,2.5-1.7,4-4.1,4.6c-1.7,0.4-3.5,0.4-5.2,0c-2.1-0.6-3.5-1.9-3.9-4.1
				c-0.4-2.4-0.4-4.8,0-7.2c0.3-2.1,1.7-3.5,3.7-4.1c1.8-0.5,3.7-0.5,5.6,0c2.5,0.7,3.8,2.4,4,5.2
				C505.5,124.4,505.5,125.2,505.5,126z M501.1,126C501.1,126,501.1,126,501.1,126c0-0.8,0-1.7,0-2.5c-0.1-0.9-0.6-1.5-1.5-1.6
				c-0.4-0.1-0.8-0.1-1.2-0.1c-1.5,0.1-2.1,0.7-2.1,2.2c0,1.3,0,2.7,0,4.1c0,1.5,0.7,2.2,2.2,2.2c0.4,0,0.7,0,1.1-0.1
				c1-0.2,1.5-0.7,1.6-1.7C501.1,127.7,501.1,126.8,501.1,126z"/>
			<path class="st3" d="M574.8,127.8c0,1.8,0,3.5,0,5.3c0,0.5-0.2,0.7-0.7,0.7c-1,0-2,0-2.9,0c-0.6,0-0.7-0.2-0.7-0.7
				c0-3.4,0-6.9,0-10.3c0-0.6-0.1-0.9-0.8-0.8c-1.6,0.1-1.6,0-1.6-1.6c0-0.6-0.2-1.3,0.1-1.8c0.4-0.5,1.1-0.1,1.7-0.2
				c0.4,0,0.5-0.1,0.5-0.5c0-0.7,0-1.4,0-2.2c0.2-2.3,1.7-3.7,4-3.9c1.4-0.1,2.7,0,4,0.3c0.4,0.1,0.5,0.3,0.5,0.7
				c-0.1,0.8-0.2,1.6-0.3,2.4c-0.1,0.4-0.2,0.6-0.7,0.5c-0.7-0.2-1.5-0.2-2.2-0.2c-0.4,0-0.8,0.2-0.9,0.6c-0.2,0.7-0.1,1.4-0.1,2.1
				c0,0.3,0.3,0.2,0.5,0.2c0.9,0,1.7,0,2.6,0c0.5,0,0.7,0.1,0.7,0.7c-0.1,0.8-0.1,1.5-0.2,2.3c0,0.5-0.2,0.6-0.7,0.6
				c-0.7,0-1.5,0-2.2,0c-0.5,0-0.8,0.1-0.7,0.7c0,0,0,0,0,0.1C574.8,124.3,574.8,126.1,574.8,127.8z"/>
			<path class="st3" d="M558.3,122.8c0,3.4,0,6.7,0,10.1c0,0.7-0.2,0.9-0.9,0.9c-0.9,0-1.9,0-2.8,0c-0.5,0-0.7-0.1-0.7-0.7
				c0-6,0-12.1,0-18.1c0-0.4,0.2-0.7,0.5-0.9c1-0.6,1.9-1.3,2.9-1.9c0.2-0.1,0.4-0.5,0.7-0.3c0.3,0.2,0.2,0.5,0.2,0.8
				c0,2,0,3.9,0,5.9C558.3,119.9,558.3,121.4,558.3,122.8z"/>
			<path class="st3" d="M561.5,126c0-2.3,0-4.7,0-7c0-0.6,0.2-0.8,0.8-0.8c1,0,2,0,2.9,0c0.5,0,0.7,0.2,0.7,0.7c0,4.7,0,9.4,0,14.2
				c0,0.5-0.2,0.7-0.7,0.7c-1,0-2,0-3,0c-0.5,0-0.7-0.2-0.7-0.7C561.5,130.7,561.5,128.4,561.5,126z"/>
			<path class="st3" d="M595.4,132.6c0,0.9-0.6,1.5-1.4,1.5c-0.8,0-1.5-0.7-1.5-1.5c0-0.8,0.7-1.5,1.5-1.5
				C594.9,131.1,595.4,131.7,595.4,132.6z M595.1,132.6c0-0.6-0.4-1.1-1.1-1.1c-0.6,0-1.1,0.4-1.1,1.1c0,0.7,0.5,1.2,1.1,1.2
				C594.7,133.7,595.1,133.3,595.1,132.6z"/>
			<path class="st5" d="M501.1,126c0,0.8,0,1.6,0,2.4c-0.1,1-0.5,1.6-1.6,1.7c-0.4,0.1-0.7,0.1-1.1,0.1c-1.5-0.1-2.2-0.7-2.2-2.2
				c0-1.4,0-2.7,0-4.1c0-1.5,0.7-2.1,2.1-2.2c0.4,0,0.8,0,1.2,0.1c0.9,0.2,1.4,0.7,1.5,1.6C501.1,124.4,501.1,125.2,501.1,126
				C501.1,126,501.1,126,501.1,126z"/>
			<path class="st5" d="M595.1,132.6c0,0.6-0.5,1.1-1.1,1.1c-0.7,0-1.1-0.5-1.1-1.2c0-0.6,0.5-1.1,1.1-1.1
				C594.7,131.5,595.1,132,595.1,132.6z M594.5,133.2c-0.3-0.4,0.5-1.5-0.7-1.3c-0.7,0.1-0.3,0.8-0.2,1.3
				C594,132.6,594.2,133.1,594.5,133.2z"/>
			<path class="st3" d="M594.5,133.2c-0.3-0.1-0.6-0.6-0.9,0.1c0-0.5-0.4-1.2,0.2-1.3C595,131.7,594.2,132.8,594.5,133.2z"/>
		</g>
	</g>
</g>
</svg>
