<?xml version="1.0" encoding="utf-8"?>
<!-- Generator: Adobe Illustrator 21.0.0, SVG Export Plug-In . SVG Version: 6.00 Build 0)  -->
<svg version="1.1" id="Layer_1" xmlns="http://www.w3.org/2000/svg" xmlns:xlink="http://www.w3.org/1999/xlink" x="0px" y="0px"
	 viewBox="0 0 1018.5 125.3" style="enable-background:new 0 0 1018.5 125.3;" xml:space="preserve">
<style type="text/css">
	.Drop_x0020_Shadow{fill:none;}
	.Outer_x0020_Glow_x0020_5_x0020_pt{fill:none;}
	.Blue_x0020_Neon{fill:none;stroke:#8AACDA;stroke-width:7;stroke-linecap:round;stroke-linejoin:round;}
	.Chrome_x0020_Highlight{fill:url(#SVGID_1_);stroke:#FFFFFF;stroke-width:0.3629;stroke-miterlimit:1;}
	.Jive_GS{fill:#FFDD00;}
	.Alyssa_GS{fill:#A6D0E4;}
	.st0{fill:none;stroke:#C1D62F;stroke-width:2;stroke-miterlimit:10;}
	.st1{fill:#C1D62F;}
	.st2{fill:#054261;}
	.st3{fill:#FDFEFD;}
	.st4{fill:none;stroke:#054261;stroke-width:2;stroke-miterlimit:10;}
	.st5{fill:#FFFFFF;}
</style>
<linearGradient id="SVGID_1_" gradientUnits="userSpaceOnUse" x1="5.0132" y1="3.1722" x2="5.0132" y2="2.1722">
	<stop  offset="0" style="stop-color:#656565"/>
	<stop  offset="0.618" style="stop-color:#1B1B1B"/>
	<stop  offset="0.6292" style="stop-color:#545454"/>
	<stop  offset="0.9831" style="stop-color:#3E3E3E"/>
</linearGradient>
<g>
	<line class="st0" x1="1002.7" y1="81.6" x2="579.4" y2="81.6"/>
	<g>
		<path class="st1" d="M582.3,73.5v3.9h-2.5v-3.9l-4.3-6.3h2.8l2.8,4.2l2.7-4.2h2.9L582.3,73.5z"/>
		<path class="st1" d="M596.3,72.2c0,2.9-2.4,5.3-5.3,5.3c-2.9,0-5.3-2.4-5.3-5.3c0-2.9,2.3-5.3,5.3-5.3
			C594,67,596.3,69.4,596.3,72.2z M588.1,72.2c0,1.7,1.4,3,3,3c1.6,0,3-1.3,3-3c0-1.6-1.3-3-3-3C589.4,69.3,588.1,70.6,588.1,72.2z"
			/>
		<path class="st1" d="M607.3,72.1c0,3.4-2.1,5.4-5,5.4c-2.9,0-4.9-2-4.9-5.4v-5h2.5v5c0,2,0.8,3.1,2.4,3.1c1.5,0,2.5-1.2,2.5-3.1
			v-5h2.5V72.1z"/>
		<path class="st1" d="M628.9,67.1L625,77.3h-2.5l-2.1-6.6l-2.4,6.6h-2.5L612,67.1h2.6l2.1,6.6l2.3-6.6h2.7l2.1,6.6l2.4-6.6H628.9z"
			/>
		<path class="st1" d="M638.4,67.1v2.3H633v1.8h4.5v2.1H633v1.8h5.4v2.3h-7.8V67.1H638.4z"/>
		<path class="st1" d="M648.9,71c0,1.5-0.7,2.7-1.8,3.3l2.1,3.1h-3.1l-1.5-2.5h-1.8v2.5h-2.5V67.1h4.9
			C647.4,67.1,648.9,68.8,648.9,71z M642.8,69.4v3.1h2.1c0.8,0,1.5-0.7,1.5-1.6c0-0.8-0.7-1.5-1.5-1.5H642.8z"/>
		<path class="st1" d="M658.8,67.1v2.3h-5.4v1.8h4.5v2.1h-4.5v1.8h5.4v2.3H651V67.1H658.8z"/>
		<path class="st1" d="M676.9,77.3h-2.5v-5.2l-2.4,5.2h-2.7l-2.4-5.2v5.2h-2.5V67.1h2.7l3.6,7.5l3.5-7.5h2.7V77.3z"/>
		<path class="st1" d="M686.8,75.8h-4.9l-0.7,1.6h-2.6l4.4-10.2h2.7l4.4,10.2h-2.6L686.8,75.8z M685.9,73.7l-1.6-3.8l-1.6,3.8H685.9
			z"/>
		<path class="st1" d="M701.6,72.2c0,3-2.2,5.1-5.4,5.1h-4.5V67.2l4.5,0C699.6,67.1,701.6,69.3,701.6,72.2z M694.2,75.1h2.1
			c1.7,0,2.9-1.1,2.9-2.8c0-1.8-1.2-2.8-2.9-2.8h-2.1V75.1z"/>
		<path class="st1" d="M711.2,67.1v2.3h-5.4v1.8h4.5v2.1h-4.5v1.8h5.4v2.3h-7.8V67.1H711.2z"/>
		<path class="st1" d="M724.5,69.4h-5.4v2.3h4.5V74h-4.5v3.3h-2.5V67.1h7.8V69.4z"/>
		<path class="st1" d="M736.3,72.2c0,2.9-2.4,5.3-5.3,5.3c-2.9,0-5.3-2.4-5.3-5.3c0-2.9,2.3-5.3,5.3-5.3
			C734,67,736.3,69.4,736.3,72.2z M728,72.2c0,1.7,1.3,3,3,3c1.6,0,3-1.3,3-3c0-1.6-1.3-3-3-3C729.4,69.3,728,70.6,728,72.2z"/>
		<path class="st1" d="M746.5,71c0,1.5-0.7,2.7-1.8,3.3l2.1,3.1h-3.1l-1.5-2.5h-1.8v2.5h-2.5V67.1h4.9C745,67.1,746.5,68.8,746.5,71
			z M740.4,69.4v3.1h2.1c0.8,0,1.5-0.7,1.5-1.6c0-0.8-0.7-1.5-1.5-1.5H740.4z"/>
		<path class="st1" d="M761.2,69.4h-3.6v7.9h-2.5v-7.9h-3.6v-2.3h9.7V69.4z"/>
		<path class="st1" d="M772.3,77.3h-2.5v-4h-4.5v4h-2.5V67.1h2.5v4h4.5v-4h2.5V77.3z"/>
		<path class="st1" d="M777.1,77.3h-2.5V67.1h2.5V77.3z"/>
		<path class="st1" d="M787.3,70.4h-2.4c0-0.5-0.6-1.2-1.7-1.2c-0.7,0-1.6,0.3-1.6,0.9c0,0.5,0.7,0.7,2.1,1.1c1.6,0.4,3.9,1,3.9,3.2
			c0,1.9-1.7,3.2-4.1,3.2c-3.2,0-4.5-2.2-4.5-3.8h2.4c0,0,0.2,1.6,2.2,1.6c1.1,0,1.5-0.5,1.5-0.9c0-0.6-0.9-0.9-1.8-1.1
			c-1.5-0.4-4.2-0.9-4.2-3.2c0-1.9,1.8-3.2,4.2-3.2C785.8,67,787.3,68.8,787.3,70.4z"/>
		<path class="st1" d="M791.7,76.1c0,0.8-0.7,1.4-1.5,1.4c-0.8,0-1.4-0.7-1.4-1.4c0-0.8,0.7-1.5,1.4-1.5
			C791,74.6,791.7,75.3,791.7,76.1z"/>
	</g>
	<g>
		<path class="st2" d="M238.7,70.4h-2.4c0-0.5-0.6-1.2-1.6-1.2c-0.7,0-1.6,0.3-1.6,0.9c0,0.5,0.7,0.7,2.1,1.1c1.6,0.4,3.9,1,3.9,3.2
			c0,2-1.7,3.2-4.1,3.2c-3.2,0-4.5-2.2-4.5-3.8h2.4c0,0,0.2,1.6,2.2,1.6c1.1,0,1.5-0.5,1.5-0.9c0-0.6-0.9-0.9-1.8-1.1
			c-1.5-0.4-4.2-0.9-4.2-3.2c0-1.9,1.8-3.2,4.2-3.2C237.3,67,238.7,68.8,238.7,70.4z"/>
		<path class="st2" d="M250.7,72.2c0,2.9-2.4,5.3-5.3,5.3c-2.9,0-5.3-2.4-5.3-5.3c0-2.9,2.3-5.3,5.3-5.3
			C248.3,67,250.7,69.4,250.7,72.2z M242.4,72.2c0,1.7,1.3,3,3,3c1.6,0,3-1.3,3-3c0-1.7-1.3-3-3-3C243.7,69.3,242.4,70.6,242.4,72.2
			z"/>
		<path class="st2" d="M261.6,72.1c0,3.4-2.1,5.4-5,5.4c-2.9,0-4.9-2-4.9-5.4v-5h2.5v5c0,2,0.8,3.1,2.4,3.1c1.5,0,2.5-1.2,2.5-3.1
			v-5h2.5V72.1z"/>
		<path class="st2" d="M272.5,69.4h-3.6v7.9h-2.5v-7.9h-3.6v-2.3h9.7V69.4z"/>
		<path class="st2" d="M283.6,77.3h-2.5v-4h-4.5v4h-2.5V67.2h2.5v4h4.5v-4h2.5V77.3z"/>
		<path class="st2" d="M291,73.4h-5.5v-2.3h5.5V73.4z"/>
		<path class="st2" d="M300.6,67.2v2.3h-5.4v1.8h4.5v2.1h-4.5v1.8h5.4v2.3h-7.8V67.2H300.6z"/>
		<path class="st2" d="M310.2,75.8h-4.9l-0.7,1.6H302l4.4-10.2h2.7l4.4,10.2h-2.6L310.2,75.8z M309.4,73.7l-1.6-3.8l-1.6,3.8H309.4z
			"/>
		<path class="st2" d="M322,70.4h-2.4c0-0.5-0.6-1.2-1.6-1.2c-0.7,0-1.6,0.3-1.6,0.9c0,0.5,0.7,0.7,2.1,1.1c1.6,0.4,3.9,1,3.9,3.2
			c0,2-1.7,3.2-4.1,3.2c-3.2,0-4.5-2.2-4.5-3.8h2.4c0,0,0.2,1.6,2.2,1.6c1.1,0,1.5-0.5,1.5-0.9c0-0.6-0.9-0.9-1.8-1.1
			c-1.5-0.4-4.2-0.9-4.2-3.2c0-1.9,1.8-3.2,4.2-3.2C320.6,67,322,68.8,322,70.4z"/>
		<path class="st2" d="M332.8,69.4h-3.6v7.9h-2.5v-7.9H323v-2.3h9.7V69.4z"/>
		<path class="st2" d="M347.8,74.9c-0.9,1.5-2.6,2.7-4.8,2.7c-3.2,0-5.5-2.3-5.5-5.4c0-2.8,2.3-5.2,5.5-5.2c2.2,0,3.9,1,4.8,2.5
			l-2.1,1.2c-0.5-0.9-1.4-1.5-2.7-1.5c-1.8,0-3,1.3-3,3c0,1.6,1.2,3,3,3c1.3,0,2.2-0.6,2.7-1.5L347.8,74.9z"/>
		<path class="st2" d="M351.9,77.3h-2.5V67.2h2.5V77.3z"/>
		<path class="st2" d="M364.1,77.3h-2.5l-5.2-6.2v6.2H354V67.2h2.5l5.2,6.2v-6.2h2.5V77.3z"/>
		<path class="st2" d="M376.1,74.9c-0.9,1.5-2.6,2.7-4.8,2.7c-3.2,0-5.5-2.3-5.5-5.4c0-2.8,2.3-5.2,5.5-5.2c2.2,0,3.9,1,4.8,2.5
			l-2.1,1.2c-0.5-0.9-1.4-1.5-2.7-1.5c-1.8,0-3,1.3-3,3c0,1.6,1.2,3,3,3c1.3,0,2.2-0.6,2.7-1.5L376.1,74.9z"/>
		<path class="st2" d="M380.2,77.3h-2.5V67.2h2.5V77.3z"/>
		<path class="st2" d="M392.4,77.3H390l-5.2-6.2v6.2h-2.5V67.2h2.5l5.2,6.2v-6.2h2.5V77.3z"/>
		<path class="st2" d="M404.5,77.3h-2.5l-5.2-6.2v6.2h-2.5V67.2h2.5l5.2,6.2v-6.2h2.5V77.3z"/>
		<path class="st2" d="M414.3,75.8h-4.9l-0.7,1.6h-2.6l4.4-10.2h2.7l4.4,10.2h-2.6L414.3,75.8z M413.4,73.7l-1.6-3.8l-1.6,3.8H413.4
			z"/>
		<path class="st2" d="M426.4,69.4h-3.6v7.9h-2.5v-7.9h-3.6v-2.3h9.7V69.4z"/>
		<path class="st2" d="M430.5,77.3h-2.5V67.2h2.5V77.3z"/>
	</g>
	<g>
		<path class="st1" d="M498.8,60c0,5.2,0,10.3,0,15.5c0,1-0.3,1.3-1.3,1.3c-3.5,0-7,0-10.5,0c-1.1,0-1.3-0.2-1.3-1.4
			c0-8.3,0-16.5,0-24.8c0-0.5-0.2-0.9-0.5-1.3c-4.1-4.1-8.2-8.2-12.4-12.3c-0.5-0.5-0.7-1-0.7-1.7c0-2.6,0-5.2,0-7.8
			c0-1.1,0.1-1.2,1.3-1.2c2.4,0,4.9,0,7.3,0c0.5,0,0.8,0.1,1.1,0.5c5.5,5.5,11,11,16.5,16.5c0.4,0.4,0.5,0.8,0.5,1.3
			C498.8,49.7,498.8,54.9,498.8,60z"/>
		<path class="st1" d="M503.9,60c0-5.1,0-10.2,0-15.4c0-0.6,0.2-1.1,0.6-1.5c3.6-3.5,7.1-7.1,10.6-10.6c0.2-0.2,0.4-0.4,0.6-0.5
			c0.6-0.4,1.2-0.1,1.3,0.5c0,0.2,0,0.5,0,0.8c0,9.8,0,19.7,0,29.5c0,0.7,0.2,0.8,0.9,0.8c3,0,6.1,0,9.1,0c0.6,0,1.1,0.2,1.5,0.6
			c1.7,1.7,3.4,3.4,5.1,5.1c0.7,0.7,0.7,1,0,1.7c-1.7,1.8-3.5,3.5-5.2,5.2c-0.3,0.3-0.7,0.5-1.1,0.5c-7.4,0-14.9,0-22.3,0
			c-0.9,0-1.1-0.2-1.1-1.2C503.9,70.4,503.9,65.2,503.9,60z"/>
		<path class="st3" d="M515.6,96.5c0,0.2,0,0.5,0,0.7c0,0.9-0.4,1.4-1.3,1.5c-0.9,0.1-2,0.3-2.7-0.5c-0.7-0.9-0.4-2-0.3-3.1
			c0,0,0-0.1,0-0.1c0.3-0.7,1.6-1,2.9-0.8c0.9,0.2,1.3,0.6,1.3,1.5C515.6,96,515.6,96.3,515.6,96.5z"/>
		<path class="st3" d="M518,125.3c-0.3-0.2-1,0.4-1-0.5c0-0.6,0.4-1,1-1c0.6,0,1,0.4,1,1C519,125.6,518.4,125.1,518,125.3z"/>
		<path class="st3" d="M488.6,125.3c-0.3-0.2-0.9,0.3-0.9-0.5c0-0.6,0.4-1,1-1c0.6,0,1,0.3,1,0.9C489.7,125.7,488.9,125,488.6,125.3
			z"/>
		<path class="st3" d="M479,125.2c-0.2-0.2-0.9,0.4-0.9-0.4c0-0.6,0.4-1,1.1-1c0.6,0,0.9,0.4,0.9,1
			C480.1,125.2,480.1,125.2,479,125.2z"/>
		<g>
			<path class="st1" d="M534,82.6c0,0.6,0,1.2,0,1.7c0,0.5-0.1,0.7-0.6,0.7c-1,0-2,0-3.1,0c-0.4,0-0.7-0.1-0.6-0.6
				c0-1.3,0-2.5,0-3.8c0-0.4,0.1-0.6,0.6-0.6c1.1,0,2.1,0,3.2,0c0.4,0,0.6,0.2,0.6,0.6C534,81.3,534,82,534,82.6z"/>
			<path class="st3" d="M553.8,92.3c-0.5,0-0.9,0-1.4,0c-0.6,0.1-0.7-0.2-0.6-0.7c0.1-1.2,1-1.9,2.4-1.8c1.2,0.1,1.7,0.7,1.7,2
				c0,0.4-0.1,0.5-0.5,0.5C554.9,92.3,554.4,92.3,553.8,92.3z"/>
			<g>
				<path class="st2" d="M512,108.3c-1.7-0.1-3.4-0.2-5.1-0.7c-0.5-0.1-0.7-0.3-0.6-0.8c0.1-0.7,0.3-1.4,0.3-2.1
					c0.1-0.5,0.2-0.7,0.8-0.5c2.3,0.5,4.5,0.7,6.9,0.4c0.4,0,0.8-0.1,0.9-0.5c0.2-0.6,0-1-0.7-1.1c-1.4-0.2-2.8-0.3-4.2-0.5
					c-0.4,0-0.8-0.1-1.2-0.2c-1-0.2-2-0.6-2.3-1.7c-0.4-1.2-0.3-2.4,0.6-3.3c0.4-0.4,0.5-0.7,0-1.1c-0.5-0.5-0.9-1.1-1-1.8
					c-0.4-1.6-0.4-3.3,0-4.9c0.6-2.1,2.1-3,4.1-3.3c1.4-0.2,2.8-0.1,4.2,0.1c1.4,0.2,2.8,0.1,4.2,0.1c0.7,0,1,0.2,0.9,0.9
					c0,0.1,0,0.3,0,0.4c0,1.2,0.2,1.1-1,1.4c-0.4,0.1-0.4,0.2-0.3,0.6c0.4,1.5,0.4,3.1,0.1,4.6c-0.5,2-1.9,3-3.8,3.4
					c-0.8,0.2-1.6,0.2-2.4,0.2c-0.2,0-0.3,0-0.5,0c-0.4,0.1-0.7,0.4-0.7,0.8c0,0.4,0.4,0.3,0.7,0.4c1.2,0.1,2.4,0.3,3.5,0.4
					c3.5,0.2,4.3,2,3.9,5.2c-0.2,2-1.5,3-3.9,3.3C514.2,108.2,513.1,108.3,512,108.3z M514.7,92.1c0-0.2,0-0.5,0-0.7
					c0-0.9-0.4-1.4-1.3-1.5c-1.4-0.3-2.6,0-2.9,0.8c0,0,0,0.1,0,0.1c-0.1,1.1-0.5,2.2,0.3,3.1c0.7,0.8,1.7,0.6,2.7,0.5
					c0.9-0.1,1.3-0.6,1.3-1.5C514.7,92.6,514.7,92.3,514.7,92.1z"/>
				<path class="st2" d="M452.1,96.8c0.7-2.2,1.3-4.4,2-6.5c0.3-1.1,0.7-2.1,1-3.2c0.1-0.4,0.3-0.6,0.8-0.6c1,0,2.1,0,3.1,0
					c0.6,0,0.7,0.2,0.5,0.7c-2.2,6.7-4.3,13.4-6.5,20.1c-0.2,0.5-0.4,0.7-0.9,0.6c-0.9,0-1.7,0-2.6,0c-0.8,0-0.9-0.1-0.6-0.9
					c0.5-1.5,0.9-3,1.4-4.5c0.1-0.4,0.2-0.7-0.4-0.6c-0.4,0.1-0.6-0.2-0.7-0.5c-1.5-4.7-3-9.4-4.4-14c-0.3-0.8-0.2-0.9,0.7-0.9
					c0.9,0,1.8,0,2.7,0c0.7,0,0.9,0.2,1.1,0.8c0.9,3,1.8,6,2.7,9C451.8,96.4,451.8,96.6,452.1,96.8z"/>
				<path class="st2" d="M491.2,94.1c0-2.3,0-4.6,0-6.9c0-0.6,0.2-0.8,0.8-0.8c0.5,0,1.1,0,1.6,0c0.6,0,1.2,0,1.3,0.8
					c0,0.4,0.4,0.2,0.6,0.1c1.4-0.6,2.8-1,4.3-1.2c2.7-0.4,4.2,0.8,4.6,3.5c0.2,1.4,0.1,2.7,0.1,4.1c0,2.4,0,4.8,0,7.3
					c0,0.7-0.2,0.9-0.8,0.8c-0.9,0-1.9,0-2.8,0c-0.6,0-0.8-0.2-0.8-0.8c0-3.2,0-6.5,0-9.7c0-0.9-0.3-1.2-1.2-1.1
					c-1,0.1-2,0.5-2.9,0.9c-0.4,0.2-0.3,0.4-0.3,0.7c0,3,0,6,0,9c0,0.7-0.2,0.9-0.9,0.9c-0.9,0-1.9,0-2.8,0c-0.5,0-0.7-0.2-0.7-0.7
					C491.2,98.9,491.2,96.5,491.2,94.1z"/>
				<path class="st1" d="M555.9,95.9c-1.2,0-2.3,0-3.5,0c-0.5,0-0.6,0.2-0.6,0.6c0,1.3,0.5,1.9,1.8,1.9c1.6,0.1,3.2,0,4.8-0.5
					c0.5-0.2,0.8-0.1,0.9,0.5c0.1,0.7,0.3,1.4,0.4,2.1c0.1,0.3,0,0.6-0.4,0.7c-2.6,0.9-5.3,1.2-8,0.6c-2.1-0.5-3.5-1.9-3.7-4
					c-0.3-2.4-0.4-4.9,0-7.3c0.4-2.7,2.4-4.2,5.4-4.4c1.3-0.1,2.6,0,3.9,0.5c1.4,0.5,2.3,1.5,2.7,3c0.6,1.9,0.3,3.9,0.4,5.9
					c0,0.4-0.3,0.4-0.7,0.4C558.3,95.9,557.1,95.9,555.9,95.9z M553.8,92.3c0.5,0,1.1,0,1.6,0c0.4,0,0.5-0.1,0.5-0.5
					c0-1.3-0.5-1.9-1.7-2c-1.5-0.1-2.3,0.5-2.4,1.8c0,0.5,0,0.8,0.6,0.7C552.9,92.3,553.4,92.3,553.8,92.3z"/>
				<path class="st2" d="M488.7,94.3c0,2.3,0,4.6,0,6.9c0,0.6-0.2,0.8-0.8,0.8c-0.5,0-1.1,0-1.6,0c-0.6,0-1.2,0-1.3-0.8
					c-0.1-0.4-0.4-0.2-0.6-0.1c-1.2,0.5-2.4,0.9-3.7,1.1c-0.1,0-0.2,0-0.3,0.1c-3.1,0.4-4.8-0.9-4.8-4c-0.1-3.7,0-7.4,0-11.1
					c0-0.5,0.2-0.6,0.7-0.6c1,0,2,0,2.9,0c0.6,0,0.8,0.2,0.8,0.8c0,3.1,0,6.2,0,9.4c0,0.2,0,0.5,0,0.7c0,0.5,0.3,0.7,0.8,0.7
					c1.3,0,2.4-0.5,3.5-1c0.3-0.1,0.2-0.4,0.2-0.6c0-3,0-6.1,0-9.1c0-0.6,0.1-0.8,0.8-0.8c0.9,0,1.8,0,2.7,0c0.6,0,0.9,0.2,0.8,0.8
					C488.7,89.6,488.7,92,488.7,94.3z"/>
				<path class="st2" d="M473.6,94.2c0,1,0.1,2.1-0.1,3.1c-0.3,2.5-1.7,4-4.1,4.6c-1.7,0.4-3.5,0.4-5.2,0c-2.1-0.6-3.5-1.9-3.9-4.1
					c-0.4-2.4-0.4-4.8,0-7.2c0.3-2.1,1.7-3.5,3.7-4.1c1.8-0.5,3.7-0.5,5.6,0c2.5,0.7,3.8,2.4,4,5.2
					C473.7,92.5,473.6,93.4,473.6,94.2z M469.3,94.2C469.3,94.2,469.3,94.2,469.3,94.2c0-0.8,0-1.7,0-2.5c-0.1-0.9-0.6-1.5-1.5-1.6
					c-0.4-0.1-0.8-0.1-1.2-0.1c-1.5,0.1-2.1,0.7-2.1,2.2c0,1.3,0,2.7,0,4.1c0,1.5,0.7,2.2,2.2,2.2c0.4,0,0.7,0,1.1-0.1
					c1-0.2,1.5-0.7,1.6-1.7C469.3,95.8,469.3,95,469.3,94.2z"/>
				<path class="st1" d="M542.9,96c0,1.8,0,3.5,0,5.3c0,0.5-0.2,0.7-0.7,0.7c-1,0-2,0-2.9,0c-0.6,0-0.7-0.2-0.7-0.7
					c0-3.4,0-6.9,0-10.3c0-0.6-0.1-0.9-0.8-0.8c-1.6,0.1-1.6,0-1.6-1.6c0-0.6-0.2-1.3,0.1-1.8c0.4-0.5,1.1-0.1,1.7-0.2
					c0.4,0,0.5-0.1,0.5-0.5c0-0.7,0-1.4,0-2.2c0.2-2.3,1.7-3.7,4-3.9c1.4-0.1,2.7,0,4,0.3c0.4,0.1,0.5,0.3,0.5,0.7
					c-0.1,0.8-0.2,1.6-0.3,2.4c-0.1,0.4-0.2,0.6-0.7,0.5c-0.7-0.2-1.5-0.2-2.2-0.2c-0.4,0-0.8,0.2-0.9,0.6c-0.2,0.7-0.1,1.4-0.1,2.1
					c0,0.3,0.3,0.2,0.5,0.2c0.9,0,1.7,0,2.6,0c0.5,0,0.7,0.1,0.7,0.7c-0.1,0.8-0.1,1.5-0.2,2.3c0,0.5-0.2,0.6-0.7,0.6
					c-0.7,0-1.5,0-2.2,0c-0.5,0-0.8,0.1-0.7,0.7c0,0,0,0,0,0.1C542.9,92.5,542.9,94.2,542.9,96z"/>
				<path class="st1" d="M526.5,91c0,3.4,0,6.7,0,10.1c0,0.7-0.2,0.9-0.9,0.9c-0.9,0-1.9,0-2.8,0c-0.5,0-0.7-0.1-0.7-0.7
					c0-6,0-12.1,0-18.1c0-0.4,0.2-0.7,0.5-0.9c1-0.6,1.9-1.3,2.9-1.9c0.2-0.1,0.4-0.5,0.7-0.3c0.3,0.2,0.2,0.5,0.2,0.8
					c0,2,0,3.9,0,5.9C526.5,88.1,526.5,89.5,526.5,91z"/>
				<path class="st1" d="M529.7,94.2c0-2.3,0-4.7,0-7c0-0.6,0.2-0.8,0.8-0.8c1,0,2,0,2.9,0c0.5,0,0.7,0.2,0.7,0.7
					c0,4.7,0,9.4,0,14.2c0,0.5-0.2,0.7-0.7,0.7c-1,0-2,0-3,0c-0.5,0-0.7-0.2-0.7-0.7C529.7,98.9,529.7,96.6,529.7,94.2z"/>
				<path class="st1" d="M563.6,100.8c0,0.9-0.6,1.5-1.4,1.5c-0.8,0-1.5-0.7-1.5-1.5c0-0.8,0.7-1.5,1.5-1.5
					C563.1,99.3,563.6,99.9,563.6,100.8z M563.3,100.8c0-0.6-0.4-1.1-1.1-1.1c-0.6,0-1.1,0.4-1.1,1.1c0,0.7,0.5,1.2,1.1,1.2
					C562.9,101.9,563.3,101.5,563.3,100.8z"/>
				<path class="st3" d="M469.3,94.2c0,0.8,0,1.6,0,2.4c-0.1,1-0.5,1.6-1.6,1.7c-0.4,0.1-0.7,0.1-1.1,0.1c-1.5-0.1-2.2-0.7-2.2-2.2
					c0-1.4,0-2.7,0-4.1c0-1.5,0.7-2.1,2.1-2.2c0.4,0,0.8,0,1.2,0.1c0.9,0.2,1.4,0.7,1.5,1.6C469.3,92.5,469.3,93.4,469.3,94.2
					C469.3,94.2,469.3,94.2,469.3,94.2z"/>
				<path class="st3" d="M563.3,100.8c0,0.6-0.5,1.1-1.1,1.1c-0.7,0-1.1-0.5-1.1-1.2c0-0.6,0.5-1.1,1.1-1.1
					C562.9,99.7,563.3,100.2,563.3,100.8z M562.7,101.4c-0.3-0.4,0.5-1.5-0.7-1.3c-0.7,0.1-0.3,0.8-0.2,1.3
					C562.2,100.8,562.4,101.3,562.7,101.4z"/>
				<path class="st1" d="M562.7,101.4c-0.3-0.1-0.6-0.6-0.9,0.1c0-0.5-0.4-1.2,0.2-1.3C563.2,99.9,562.4,100.9,562.7,101.4z"/>
			</g>
		</g>
	</g>
	<line class="st4" x1="430.6" y1="81.6" x2="7.3" y2="81.6"/>
</g>
<rect class="st5" width="1018.5" height="21.5"/>
<g>
</g>
<g>
</g>
<g>
</g>
<g>
</g>
<g>
</g>
<g>
</g>
<g>
</g>
<g>
</g>
<g>
</g>
<g>
</g>
<g>
</g>
<g>
</g>
<g>
</g>
<g>
</g>
<g>
</g>
</svg>
